<mxfile host="app.diagrams.net" modified="2022-05-02T12:43:46.580Z" agent="5.0 (Windows NT 10.0; Win64; x64) AppleWebKit/537.36 (KHTML, like Gecko) Chrome/101.0.4951.41 Safari/537.36 Edg/101.0.1210.32" etag="7fcjI5aUKjR_wXsRFCUY" version="17.5.0" type="github">
  <diagram id="W2wBffWx5kK1FN6DKChL" name="Page-1">
    <mxGraphModel dx="1038" dy="579" grid="1" gridSize="10" guides="1" tooltips="1" connect="1" arrows="1" fold="1" page="1" pageScale="1" pageWidth="850" pageHeight="1100" math="0" shadow="0">
      <root>
        <mxCell id="0" />
        <mxCell id="1" parent="0" />
        <mxCell id="zprcCOdkAi9wyAECx-r7-3" value="" style="edgeStyle=orthogonalEdgeStyle;rounded=0;orthogonalLoop=1;jettySize=auto;html=1;" edge="1" parent="1" source="zprcCOdkAi9wyAECx-r7-1" target="zprcCOdkAi9wyAECx-r7-2">
          <mxGeometry relative="1" as="geometry" />
        </mxCell>
        <mxCell id="zprcCOdkAi9wyAECx-r7-1" value="start" style="rounded=1;whiteSpace=wrap;html=1;" vertex="1" parent="1">
          <mxGeometry x="80" y="30" width="90" height="20" as="geometry" />
        </mxCell>
        <mxCell id="zprcCOdkAi9wyAECx-r7-7" value="yes" style="edgeStyle=orthogonalEdgeStyle;rounded=0;orthogonalLoop=1;jettySize=auto;html=1;" edge="1" parent="1" source="zprcCOdkAi9wyAECx-r7-2" target="zprcCOdkAi9wyAECx-r7-6">
          <mxGeometry relative="1" as="geometry" />
        </mxCell>
        <mxCell id="zprcCOdkAi9wyAECx-r7-9" value="no" style="edgeStyle=orthogonalEdgeStyle;rounded=0;orthogonalLoop=1;jettySize=auto;html=1;" edge="1" parent="1" source="zprcCOdkAi9wyAECx-r7-2" target="zprcCOdkAi9wyAECx-r7-8">
          <mxGeometry relative="1" as="geometry" />
        </mxCell>
        <mxCell id="zprcCOdkAi9wyAECx-r7-2" value="IF card locked target is pop" style="rhombus;whiteSpace=wrap;html=1;" vertex="1" parent="1">
          <mxGeometry x="85" y="110" width="80" height="80" as="geometry" />
        </mxCell>
        <mxCell id="zprcCOdkAi9wyAECx-r7-6" value="set target agent is pop grp leader" style="whiteSpace=wrap;html=1;" vertex="1" parent="1">
          <mxGeometry x="225" y="120" width="120" height="60" as="geometry" />
        </mxCell>
        <mxCell id="zprcCOdkAi9wyAECx-r7-11" value="" style="edgeStyle=orthogonalEdgeStyle;rounded=0;orthogonalLoop=1;jettySize=auto;html=1;" edge="1" parent="1" source="zprcCOdkAi9wyAECx-r7-8" target="zprcCOdkAi9wyAECx-r7-10">
          <mxGeometry relative="1" as="geometry" />
        </mxCell>
        <mxCell id="zprcCOdkAi9wyAECx-r7-15" value="" style="edgeStyle=orthogonalEdgeStyle;rounded=0;orthogonalLoop=1;jettySize=auto;html=1;" edge="1" parent="1" source="zprcCOdkAi9wyAECx-r7-8" target="zprcCOdkAi9wyAECx-r7-14">
          <mxGeometry relative="1" as="geometry" />
        </mxCell>
        <mxCell id="zprcCOdkAi9wyAECx-r7-8" value="ELSE" style="rhombus;whiteSpace=wrap;html=1;" vertex="1" parent="1">
          <mxGeometry x="85" y="270" width="80" height="80" as="geometry" />
        </mxCell>
        <mxCell id="zprcCOdkAi9wyAECx-r7-10" value="Set locked target is target agent" style="whiteSpace=wrap;html=1;" vertex="1" parent="1">
          <mxGeometry x="225" y="280" width="120" height="60" as="geometry" />
        </mxCell>
        <mxCell id="zprcCOdkAi9wyAECx-r7-17" value="" style="edgeStyle=orthogonalEdgeStyle;rounded=0;orthogonalLoop=1;jettySize=auto;html=1;" edge="1" parent="1" source="zprcCOdkAi9wyAECx-r7-14" target="zprcCOdkAi9wyAECx-r7-16">
          <mxGeometry relative="1" as="geometry" />
        </mxCell>
        <mxCell id="zprcCOdkAi9wyAECx-r7-14" value="call&amp;nbsp;addAttacking&lt;br&gt;AgentId" style="rounded=1;whiteSpace=wrap;html=1;fillColor=#f8cecc;gradientColor=#ea6b66;strokeColor=#b85450;" vertex="1" parent="1">
          <mxGeometry x="65" y="400" width="120" height="60" as="geometry" />
        </mxCell>
        <mxCell id="zprcCOdkAi9wyAECx-r7-16" value="end" style="ellipse;whiteSpace=wrap;html=1;" vertex="1" parent="1">
          <mxGeometry x="250" y="405" width="100" height="50" as="geometry" />
        </mxCell>
      </root>
    </mxGraphModel>
  </diagram>
</mxfile>
